<svg width="82" height="118" viewBox="0 0 82 118" fill="none" xmlns="http://www.w3.org/2000/svg">
<path d="M18.9801 50.9553H63.2836C64.5995 50.9553 65.7145 49.8403 65.7145 48.5244C65.7145 47.1808 64.5995 46.0658 63.2836 46.0658H18.9801C17.6642 46.0658 16.5491 47.1808 16.5491 48.5244C16.5491 49.8403 17.6642 50.9553 18.9801 50.9553ZM18.9801 68.5317H63.2836C64.6341 68.5317 65.7145 67.479 65.7145 66.1008C65.7145 64.7572 64.6341 63.7045 63.2836 63.7045H18.9801C17.6295 63.7045 16.5491 64.7572 16.5491 66.1008C16.5491 67.479 17.6295 68.5317 18.9801 68.5317ZM18.9801 87.1533H42.3691C43.685 87.1533 44.8 86.0383 44.8 84.6947C44.8 83.3788 43.7196 82.2984 42.3691 82.2984H18.9801C17.6295 82.2984 16.5491 83.3788 16.5491 84.6947C16.5491 86.0383 17.6642 87.1533 18.9801 87.1533ZM15.0264 117.545H67.2026C76.6739 117.545 81.4926 112.726 81.4926 103.178V27.9163C81.4926 18.5419 76.7848 13.5223 67.5836 13.5223H65.1075C65.1422 13.8478 65.1422 14.2356 65.1422 14.5611V17.8927C65.1422 18.4677 65.1075 19.0634 65.0312 19.5967H67.4244C72.726 19.5967 75.4459 22.7047 75.4459 28.0409V103.054C75.4459 108.535 72.5181 111.532 66.9048 111.532H15.3589C9.7109 111.532 6.8107 108.535 6.8107 103.054V28.0409C6.8107 22.7047 9.503 19.5967 14.8392 19.5967H17.2601C17.1561 19.0634 17.1215 18.4677 17.1215 17.8927V14.5611C17.1215 14.2356 17.1215 13.8478 17.1561 13.5223H14.68C5.4442 13.5223 0.770996 18.5419 0.770996 27.9163V103.178C0.770996 112.726 5.5827 117.545 15.0264 117.545ZM26.2061 23.6729H56.0229C58.5779 23.6729 60.1151 22.1287 60.1151 19.5181V14.5334C60.1151 11.8952 58.5779 10.3787 56.0229 10.3787H50.8943C50.6864 5.17216 46.4145 0.976562 41.1318 0.976562C35.8768 0.976562 31.5772 5.17216 31.3347 10.3787H26.2061C23.6787 10.3787 22.1485 11.8952 22.1485 14.5334V19.5181C22.1485 22.1287 23.6787 23.6729 26.2061 23.6729ZM41.1318 14.9685C38.7159 14.9685 36.7568 12.9818 36.7568 10.5935C36.7568 8.14986 38.7159 6.22546 41.1318 6.22546C43.5477 6.22546 45.4722 8.14986 45.4722 10.5935C45.4722 12.9818 43.5477 14.9685 41.1318 14.9685Z" fill="black"/>
</svg>
