<svg width="100" height="72" viewBox="0 0 100 72" fill="none" xmlns="http://www.w3.org/2000/svg">
<path d="M28.375 10.2075H95.097C97.283 10.2075 99.023 8.47762 99.023 6.28082C99.023 4.09462 97.283 2.36462 95.097 2.36462H28.375C26.1782 2.36462 24.4482 4.09462 24.4482 6.28082C24.4482 8.47762 26.1782 10.2075 28.375 10.2075ZM28.375 39.7264H95.097C97.283 39.7264 99.023 37.9859 99.023 35.7997C99.023 33.6135 97.283 31.8729 95.097 31.8729H28.375C26.1782 31.8729 24.4482 33.6135 24.4482 35.7997C24.4482 37.9859 26.1782 39.7264 28.375 39.7264ZM28.375 69.2347H95.097C97.283 69.2347 99.023 67.5047 99.023 65.3185C99.023 63.1218 97.283 61.3918 95.097 61.3918H28.375C26.1782 61.3918 24.4482 63.1218 24.4482 65.3185C24.4482 67.5047 26.1782 69.2347 28.375 69.2347ZM6.8255 12.4354C10.1985 12.4354 12.9696 9.66432 12.9696 6.28082C12.9696 2.90782 10.1985 0.136719 6.8255 0.136719C3.442 0.136719 0.670898 2.90782 0.670898 6.28082C0.670898 9.66432 3.442 12.4354 6.8255 12.4354ZM6.8255 41.9543C10.1985 41.9543 12.9696 39.1832 12.9696 35.7997C12.9696 32.4161 10.1985 29.6451 6.8255 29.6451C3.442 29.6451 0.670898 32.4161 0.670898 35.7997C0.670898 39.1832 3.442 41.9543 6.8255 41.9543ZM6.8255 71.4626C10.1985 71.4626 12.9696 68.6915 12.9696 65.3185C12.9696 61.935 10.1985 59.1639 6.8255 59.1639C3.442 59.1639 0.670898 61.935 0.670898 65.3185C0.670898 68.6915 3.442 71.4626 6.8255 71.4626Z" fill="black"/>
</svg>
