<svg width="82" height="82" viewBox="0 0 82 82" fill="none" xmlns="http://www.w3.org/2000/svg">
<path d="M0.581055 40.7389C0.581055 43.1215 2.58035 45.1314 4.97365 45.1314H36.4822V76.6399C36.4822 78.9814 38.492 81.0324 40.8747 81.0324C43.2574 81.0324 45.2155 78.9814 45.2155 76.6399V45.1314H76.7758C79.1172 45.1314 81.1165 43.1215 81.1165 40.7389C81.1165 38.3562 79.1172 36.3463 76.7758 36.3463H45.2155V4.83781C45.2155 2.49631 43.2574 0.445312 40.8747 0.445312C38.492 0.445312 36.4822 2.49631 36.4822 4.83781V36.3463H4.97365C2.58035 36.3463 0.581055 38.3562 0.581055 40.7389Z" fill="black"/>
</svg>
