<svg width="88" height="111" viewBox="0 0 88 111" fill="none" xmlns="http://www.w3.org/2000/svg">
<path d="M15.8389 110.25H71.8422C82.0743 110.25 87.1602 105.143 87.1602 95.0869V46.436C87.1602 36.3698 82.0743 31.2733 71.8422 31.2733H58.2568V39.168H71.7176C76.5 39.168 79.3067 41.7878 79.3067 46.8194V94.7036C79.3067 99.7869 76.5 102.344 71.7176 102.344H15.9635C11.0872 102.344 8.37437 99.7869 8.37437 94.7036V46.8194C8.37437 41.7878 11.0872 39.168 15.9635 39.168H29.4454V31.2733H15.8389C5.65857 31.2733 0.520874 36.3487 0.520874 46.436V95.0869C0.520874 105.164 5.65857 110.25 15.8389 110.25ZM43.8147 72.0216C45.9386 72.0216 47.7414 70.2705 47.7414 68.1984V18.1025L47.4203 10.7631L50.6913 14.2516L58.0935 22.1196C58.8085 22.8863 59.8033 23.2802 60.7359 23.2802C62.787 23.2802 64.331 21.8397 64.331 19.8816C64.331 18.7938 63.8959 18.0376 63.1291 17.3226L46.643 1.39525C45.6693 0.421448 44.8508 0.0898438 43.8147 0.0898438C42.8304 0.0898438 42.0013 0.421448 40.9863 1.39525L24.4897 17.3226C23.7747 18.0376 23.3395 18.7938 23.3395 19.8816C23.3395 21.8397 24.8213 23.2802 26.8829 23.2802C27.8155 23.2802 28.8621 22.8863 29.5665 22.1196L36.9793 14.2516L40.2608 10.7525L39.9397 18.1025V68.1984C39.9397 70.2705 41.7425 72.0216 43.8147 72.0216Z" fill="black"/>
</svg>
