<svg width="96" height="109" viewBox="0 0 96 109" fill="none" xmlns="http://www.w3.org/2000/svg">
<path d="M26.4425 22.3932H34.1924V11.9788C34.1924 9.16053 36.1364 7.36223 39.0697 7.36223H56.5663C59.4584 7.36223 61.4024 9.16053 61.4024 11.9788V22.3932H69.2041V11.4612C69.2041 4.41533 64.6071 0.078125 57.0627 0.078125H38.5216C31.0394 0.078125 26.4425 4.41533 26.4425 11.4612V22.3932ZM4.2233 26.2682H91.475C93.506 26.2682 95.091 24.6206 95.091 22.6002C95.091 20.5587 93.444 18.9323 91.475 18.9323H4.2233C2.30644 18.9323 0.596558 20.5693 0.596558 22.6002C0.596558 24.6312 2.30644 26.2682 4.2233 26.2682ZM25.5049 108.769H70.2452C77.2269 108.769 81.9294 104.264 82.2821 97.2513L85.6696 25.3758H77.8363L74.5628 96.4433C74.4276 99.3737 72.358 101.433 69.4583 101.433H26.1671C23.3815 101.433 21.2602 99.3219 21.125 96.4433L17.6857 25.3864H10.0287L13.4785 97.303C13.8313 104.315 18.4197 108.769 25.5049 108.769ZM33.3829 93.0528C35.2692 93.0528 36.471 91.8815 36.4193 90.1717L34.9124 37.9634C34.8607 36.2018 33.6271 35.1034 31.8761 35.1034C30.0521 35.1034 28.7879 36.2535 28.8397 37.9845L30.3466 90.1822C30.3983 91.9438 31.6107 93.0528 33.3829 93.0528ZM47.8492 93.0528C49.7248 93.0528 50.989 91.8921 50.989 90.1717V37.9845C50.989 36.2641 49.7248 35.1034 47.8492 35.1034C45.984 35.1034 44.7093 36.2641 44.7093 37.9845V90.1717C44.7093 91.8921 45.984 93.0528 47.8492 93.0528ZM62.3566 93.0739C64.0876 93.0739 65.3518 91.9544 65.4035 90.1928L66.8586 37.995C66.9104 36.2641 65.6874 35.1139 63.8223 35.1139C62.0606 35.1139 60.8271 36.2641 60.7753 37.9739L59.3202 90.1822C59.2685 91.8921 60.4809 93.0739 62.3566 93.0739Z" fill="white"/>
</svg>
